<svg width="323" height="99" viewBox="0 0 323 99" fill="none" xmlns="http://www.w3.org/2000/svg">
<g clip-path="url(#clip0_3664_9227)">
<path d="M175.121 30.547C181.674 15.3863 196.562 4.80298 213.89 4.80298C231.168 4.80298 246.03 15.3361 252.609 30.43" stroke="#FF8A00" stroke-width="11.5" stroke-miterlimit="10"/>
<path d="M178.239 98.4487V74.793H168.676V98.4487H178.239Z" fill="#3B8677"/>
<path d="M264.011 98.4236V74.7678H254.448V98.4236H264.011Z" fill="#67C28D"/>
<path d="M84.0664 55.982C76.861 54.1694 70.3075 55.7314 64.6151 60.5344C60.6027 63.9257 58.1535 68.286 57.3762 73.4648C56.3898 79.9718 58.0282 85.8273 62.308 90.8642C65.4677 94.5896 69.48 96.9619 74.253 97.9475C80.1293 99.1921 85.7717 97.9893 90.7871 94.6982L100.291 98.3568V76.9397C100.283 66.9996 93.7044 58.396 84.0748 55.982H84.0664ZM78.7167 86.8714C73.1412 86.8714 68.6608 82.4193 68.6608 76.8478C68.6608 71.3014 73.1161 66.8242 78.6665 66.8242C84.2253 66.8242 88.714 71.2763 88.7224 76.7977C88.7224 82.3775 84.267 86.8631 78.7167 86.8714Z" fill="#3B8677"/>
<path d="M237.17 55.3137C237.17 43.277 246.933 33.5206 258.978 33.5206C271.024 33.5206 280.787 43.277 280.787 55.3137C280.787 67.3504 271.024 77.1067 258.978 77.1067C246.933 77.1067 237.17 67.3504 237.17 55.3137ZM259.229 44.8473C253.687 44.8473 249.198 49.3329 249.198 54.871C249.198 60.409 253.687 64.8946 259.229 64.8946C264.771 64.8946 269.26 60.409 269.26 54.871C269.26 49.3329 264.771 44.8473 259.229 44.8473Z" fill="#67C28D"/>
<path d="M151.649 55.3554C151.649 43.3187 161.412 33.5624 173.458 33.5624C185.503 33.5624 195.266 43.3187 195.266 55.3554C195.266 67.3921 185.503 77.1484 173.458 77.1484C161.412 77.1484 151.649 67.3921 151.649 55.3554ZM173.458 45.3318C167.916 45.3318 163.427 49.8174 163.427 55.3554C163.427 60.8935 167.916 65.379 173.458 65.379C179 65.379 183.488 60.8935 183.488 55.3554C183.488 49.8174 179 45.3318 173.458 45.3318Z" fill="#3B8677"/>
<path d="M279.383 76.6557C279.383 64.619 289.146 54.8627 301.191 54.8627C313.237 54.8627 323 64.619 323 76.6557C323 88.6924 313.237 98.4487 301.191 98.4487C289.146 98.4487 279.383 88.6924 279.383 76.6557ZM301.175 66.6404C295.633 66.6404 291.144 71.126 291.144 76.6641C291.144 82.2021 295.633 86.6877 301.175 86.6877C306.717 86.6877 311.205 82.2021 311.205 76.6641C311.205 71.126 306.717 66.6404 301.175 66.6404Z" fill="#67C28D"/>
<path d="M322.983 76.9731V33.7712H313.421V76.9731H322.983Z" fill="#67C28D"/>
<path d="M104.161 77.207C104.161 65.1703 113.925 55.4139 125.97 55.4139C138.015 55.4139 147.779 65.1703 147.779 77.207C147.779 89.2437 138.015 99 125.97 99C113.925 99 104.161 89.2437 104.161 77.207ZM125.953 67.1833C120.411 67.1833 115.923 71.6689 115.923 77.207C115.923 82.745 120.411 87.2306 125.953 87.2306C131.495 87.2306 135.984 82.745 135.984 77.207C135.984 71.6689 131.495 67.1833 125.953 67.1833Z" fill="#3B8677"/>
<path d="M147.762 77.5243V33.5206H138.199V77.5243H147.762Z" fill="#3B8677"/>
<path d="M208.106 98.4236V33.5206H198.543V98.4236H208.106Z" fill="#67C28D"/>
<path d="M208.172 98.4403C218.655 77.9837 228.669 58.4293 239.159 37.9477C236.275 36.4692 233.425 35.0158 230.591 33.5624C220.092 54.0523 210.07 73.6235 199.604 94.055L208.172 98.4403Z" fill="#67C28D"/>
<path d="M213.648 87.7568C220.611 91.3152 227.273 94.7149 234.244 98.2733C235.715 95.3915 237.178 92.5431 238.624 89.7031C231.645 86.1364 224.982 82.7367 218.028 79.1866L213.648 87.7568Z" fill="#67C28D"/>
<path d="M14.7118 77.658C14.904 77.6329 15.0963 77.6162 15.2969 77.5828C17.5538 77.2738 19.5015 76.0626 20.7971 74.3335C20.6049 74.3586 20.4126 74.3753 20.212 74.4087C17.9551 74.7177 16.0074 75.9289 14.7118 77.658Z" fill="#3B8677"/>
<path d="M38.6102 98.4237C39.1118 98.4237 39.605 98.4237 40.0981 98.4237V93.3534L38.6102 96.4858V98.432V98.4237Z" fill="#3B8677"/>
<path d="M32.9093 74.4087C32.7087 74.3836 32.5248 74.3586 32.3242 74.3335C33.6199 76.0542 35.5675 77.2738 37.8244 77.5828C38.0251 77.6079 38.209 77.6329 38.4096 77.658C37.1139 75.9373 35.1663 74.7177 32.9093 74.4087Z" fill="#3B8677"/>
<path d="M13.0316 98.432C13.5164 98.432 14.0096 98.432 14.5195 98.432V96.4858L13.0316 93.3534V98.432Z" fill="#3B8677"/>
<path d="M41.1764 33.3954V60.7014H11.945V33.4037C5.76771 33.4037 1.07831 33.4037 0 33.4037V98.432C1.15354 98.432 5.81786 98.432 11.945 98.432V93.3534L8.9692 94.172L8.51782 93.0025L11.945 91.0897V82.6615C11.945 77.9587 15.414 73.966 20.07 73.3312C22.2433 73.0388 24.542 72.8133 26.5565 72.8133C28.5711 72.8133 30.8698 73.0388 33.0431 73.3312C37.6991 73.966 41.1681 77.9671 41.1681 82.6615V91.0897L44.5953 93.0025L44.1439 94.172L41.1681 93.3534V98.4237C47.454 98.4237 52.1769 98.4237 53.1131 98.4237V33.3954C51.9512 33.3954 47.2868 33.3954 41.1681 33.3954H41.1764Z" fill="#3B8677"/>
</g>
<defs>
<clipPath id="clip0_3664_9227">
<rect width="323" height="99" fill="white"/>
</clipPath>
</defs>
</svg>
