<svg width="21" height="21" viewBox="0 0 21 21" fill="none" xmlns="http://www.w3.org/2000/svg">
<g clip-path="url(#clip0_3569_26674)">
<path d="M11.2021 17.1422L17.7758 10.4111" stroke="#4A5565" stroke-width="1.69294" stroke-linecap="round" stroke-linejoin="round"/>
<path d="M13.5435 5.07851L6.4213 12.3463C6.10393 12.6638 5.92563 13.0943 5.92563 13.5432C5.92563 13.9921 6.10393 14.4226 6.4213 14.7401C6.73877 15.0575 7.1693 15.2358 7.61821 15.2358C8.06711 15.2358 8.49764 15.0575 8.81511 14.7401L15.9373 7.47232C16.572 6.83737 16.9286 5.97632 16.9286 5.07851C16.9286 4.1807 16.572 3.31964 15.9373 2.6847C15.3023 2.04994 14.4413 1.69336 13.5435 1.69336C12.6457 1.69336 11.7846 2.04994 11.1497 2.6847L4.02664 9.95162C3.0741 10.9042 2.53897 12.1961 2.53897 13.5432C2.53897 14.8903 3.0741 16.1822 4.02664 17.1347C4.97919 18.0873 6.27111 18.6224 7.61821 18.6224C8.96531 18.6224 10.2572 18.0873 11.2098 17.1347" stroke="#4A5565" stroke-width="1.69294" stroke-linecap="round" stroke-linejoin="round"/>
</g>
<defs>
<clipPath id="clip0_3569_26674">
<rect width="20.3152" height="20.3152" fill="white"/>
</clipPath>
</defs>
</svg>
