<svg width="25" height="25" viewBox="0 0 25 25" fill="none" xmlns="http://www.w3.org/2000/svg">
<path d="M22.0725 18.2838L13.9464 4.06308C13.7692 3.75043 13.5122 3.49038 13.2017 3.30946C12.8912 3.12853 12.5383 3.0332 12.1789 3.0332C11.8196 3.0332 11.4666 3.12853 11.1561 3.30946C10.8456 3.49038 10.5887 3.75043 10.4115 4.06308L2.2854 18.2838C2.10631 18.5939 2.0124 18.9459 2.01319 19.3041C2.01398 19.6623 2.10945 20.0139 2.28992 20.3232C2.47039 20.6326 2.72944 20.8888 3.04082 21.0658C3.3522 21.2428 3.70484 21.3343 4.06299 21.3311H20.3152C20.6716 21.3307 21.0217 21.2366 21.3302 21.0581C21.6388 20.8797 21.8949 20.6232 22.073 20.3144C22.251 20.0056 22.3447 19.6554 22.3446 19.299C22.3446 18.9426 22.2507 18.5924 22.0725 18.2838Z" stroke="#E7000B" stroke-width="2.03153" stroke-linecap="round" stroke-linejoin="round"/>
<path d="M12.1892 9.1416V13.2047" stroke="#E7000B" stroke-width="2.03153" stroke-linecap="round" stroke-linejoin="round"/>
<path d="M12.1892 17.2686H12.1992" stroke="#E7000B" stroke-width="2.03153" stroke-linecap="round" stroke-linejoin="round"/>
</svg>
