<svg width="25" height="25" viewBox="0 0 25 25" fill="none" xmlns="http://www.w3.org/2000/svg">
<path d="M19.2995 17.2685H21.331C21.9404 17.2685 22.3468 16.8622 22.3468 16.2527V13.2054C22.3468 12.2912 21.6357 11.4786 20.8231 11.2755C18.9947 10.7676 16.2522 10.1581 16.2522 10.1581C16.2522 10.1581 14.9317 8.73606 14.0175 7.82187C13.5096 7.41557 12.9002 7.11084 12.1891 7.11084H5.07878C4.46933 7.11084 3.96144 7.51715 3.65671 8.02503L2.23465 10.9707C2.10014 11.3631 2.03149 11.7749 2.03149 12.1897V16.2527C2.03149 16.8622 2.4378 17.2685 3.04726 17.2685H5.07878" stroke="#009966" stroke-width="2.03153" stroke-linecap="round" stroke-linejoin="round"/>
<path d="M7.11038 19.2999C8.23236 19.2999 9.14191 18.3903 9.14191 17.2683C9.14191 16.1464 8.23236 15.2368 7.11038 15.2368C5.9884 15.2368 5.07886 16.1464 5.07886 17.2683C5.07886 18.3903 5.9884 19.2999 7.11038 19.2999Z" stroke="#009966" stroke-width="2.03153" stroke-linecap="round" stroke-linejoin="round"/>
<path d="M9.14185 17.2681H15.2364" stroke="#009966" stroke-width="2.03153" stroke-linecap="round" stroke-linejoin="round"/>
<path d="M17.268 19.2999C18.39 19.2999 19.2995 18.3903 19.2995 17.2683C19.2995 16.1464 18.39 15.2368 17.268 15.2368C16.146 15.2368 15.2365 16.1464 15.2365 17.2683C15.2365 18.3903 16.146 19.2999 17.268 19.2999Z" stroke="#009966" stroke-width="2.03153" stroke-linecap="round" stroke-linejoin="round"/>
</svg>
