<svg width="24" height="24" viewBox="0 0 24 24" fill="none" xmlns="http://www.w3.org/2000/svg">
<path d="M15.9896 20.9863V18.9876C15.9896 17.9275 15.5684 16.9107 14.8187 16.161C14.0691 15.4114 13.0523 14.9902 11.9922 14.9902H5.99606C4.93588 14.9902 3.91913 15.4114 3.16947 16.161C2.41981 16.9107 1.99866 17.9275 1.99866 18.9876V20.9863" stroke="#FCFCFC" stroke-width="1.5" stroke-linecap="round" stroke-linejoin="round"/>
<path d="M8.9941 10.9928C11.2018 10.9928 12.9915 9.20315 12.9915 6.99545C12.9915 4.78774 11.2018 2.99805 8.9941 2.99805C6.7864 2.99805 4.9967 4.78774 4.9967 6.99545C4.9967 9.20315 6.7864 10.9928 8.9941 10.9928Z" stroke="#FCFCFC" stroke-width="1.5" stroke-linecap="round" stroke-linejoin="round"/>
<path d="M21.9857 20.9863V18.9876C21.9851 18.1019 21.6903 17.2415 21.1476 16.5415C20.605 15.8415 19.8452 15.3415 18.9877 15.1201" stroke="#FCFCFC" stroke-width="1.5" stroke-linecap="round" stroke-linejoin="round"/>
<path d="M15.9896 3.12793C16.8495 3.34809 17.6116 3.84816 18.1559 4.54932C18.7001 5.25047 18.9955 6.11282 18.9955 7.00041C18.9955 7.888 18.7001 8.75035 18.1559 9.45151C17.6116 10.1527 16.8495 10.6527 15.9896 10.8729" stroke="#FCFCFC" stroke-width="1.5" stroke-linecap="round" stroke-linejoin="round"/>
</svg>
