<svg width="42" height="33" viewBox="0 0 42 33" fill="none" xmlns="http://www.w3.org/2000/svg">
<path d="M39.2013 32.6596H2.7182C1.2199 32.6596 0 31.4396 0 29.9331V2.7182C0 1.2199 1.2199 0 2.7182 0H39.1931C40.6996 0 41.9195 1.2199 41.9195 2.7182V29.9331C41.9195 31.4396 40.6996 32.6596 39.2013 32.6596Z" fill="#FFC738"/>
<path d="M39.2013 0H20.9597V32.6596H39.2012C40.7077 32.6596 41.9194 31.4397 41.9194 29.9414V2.71827C41.9195 1.21997 40.6996 0 39.2013 0Z" fill="#FFB42E"/>
<path d="M41.9195 16.8907V15.769H27.2722V10.8157L31.0548 7.03307H41.9195C41.9195 6.64825 41.8786 6.27161 41.8131 5.91141H30.8174C30.67 5.91141 30.5226 5.97692 30.4244 6.08333L26.4781 10.0215H21.5247V0H20.4031V10.0132H15.507L11.5688 6.07501C11.4624 5.9686 11.315 5.90309 11.1676 5.90309H0.114593C0.0490818 6.27154 0.00818031 6.64811 0.00818031 7.02475H10.9384L14.6473 10.7337V15.7525H0V16.8742H14.6473V21.893L10.9384 25.6265H0.00818031C0.00818031 26.0113 0.0491506 26.3879 0.114593 26.7482H11.1758C11.3232 26.7482 11.4706 26.6826 11.577 26.5762L15.5152 22.6381H20.4112V32.6512H21.5329V22.6382H26.4862L30.4326 26.5764C30.5308 26.6828 30.6782 26.7483 30.8256 26.7483H41.8213C41.8868 26.3798 41.9277 26.0033 41.9277 25.6266H31.0467L27.2641 21.844V16.8907H41.9195ZM26.1506 21.5165H15.7689V11.1349H26.1424V21.5165H26.1506Z" fill="#C66D4E"/>
<path d="M41.9194 16.8907V15.769H27.2722V10.8157L31.0548 7.03307H41.9194C41.9194 6.64825 41.8785 6.27161 41.813 5.91141H30.8173C30.6699 5.91141 30.5226 5.97692 30.4243 6.08333L26.478 10.0215H21.5246V0H20.9597V11.1348H26.1506V21.5165H20.9597V32.6514H21.5246V22.6382H26.478L30.4243 26.5764C30.5226 26.6828 30.6699 26.7483 30.8173 26.7483H41.813C41.8785 26.3798 41.9194 26.0114 41.9194 25.6266H31.0466L27.264 21.844V16.8907H41.9194Z" fill="#AF5A35"/>
</svg>
