<svg width="186" height="180" viewBox="0 0 186 180" fill="none" xmlns="http://www.w3.org/2000/svg">
<circle cx="95.4668" cy="90.5" r="70.5" fill="#3B8677"/>
<circle cx="178.433" cy="27.5" r="7.5" fill="#66B2A3"/>
<circle cx="20" cy="10" r="10" fill="#66B2A3"/>
<circle cx="10" cy="133" r="5" fill="#66B2A3"/>
<circle cx="165.5" cy="160.5" r="2.5" fill="#66B2A3"/>
<path fill-rule="evenodd" clip-rule="evenodd" d="M84.8214 65.9164H106.135C114.469 65.9164 120.049 71.7673 120.049 80.4698V100.557C120.049 109.232 114.469 115.083 106.135 115.083H84.8214C76.4876 115.083 70.8826 109.232 70.8826 100.557V80.4698C70.8826 71.7673 76.4876 65.9164 84.8214 65.9164ZM94.0646 97.8502L105.742 86.1731C106.577 85.3373 106.577 83.9852 105.742 83.1248C104.906 82.2889 103.529 82.2889 102.693 83.1248L92.5404 93.2777L88.2383 88.9756C87.4025 88.1398 86.0258 88.1398 85.19 88.9756C84.3542 89.8114 84.3542 91.1635 85.19 92.0239L91.0408 97.8502C91.4587 98.2681 91.9996 98.4648 92.5404 98.4648C93.1058 98.4648 93.6467 98.2681 94.0646 97.8502Z" fill="#FCFCFC"/>
<circle cx="106.5" cy="4.5" r="2.5" fill="#66B2A3"/>
<circle cx="62.5" cy="176.5" r="3.5" fill="#66B2A3"/>
<circle cx="122" cy="171" r="1" fill="#66B2A3"/>
<circle cx="170.5" cy="110.5" r="2.5" fill="#66B2A3"/>
<circle cx="1" cy="75" r="1" fill="#66B2A3"/>
</svg>
