<svg width="20" height="20" viewBox="0 0 20 20" fill="none" xmlns="http://www.w3.org/2000/svg">
<g clip-path="url(#clip0_3569_27836)">
<path d="M14.5834 1.66699H6.66671C4.82576 1.66699 3.33337 3.15938 3.33337 5.00033V15.0003C3.33337 16.8413 4.82576 18.3337 6.66671 18.3337H14.5834C16.4243 18.3337 17.9167 16.8413 17.9167 15.0003V5.00033C17.9167 3.15938 16.4243 1.66699 14.5834 1.66699Z" stroke="#4A5565" stroke-width="1.5" stroke-linecap="round" stroke-linejoin="round"/>
<path d="M8.82504 11.45C8.30087 11.8017 6.92754 12.5183 7.76421 13.415C8.17254 13.8533 8.62837 14.1667 9.20004 14.1667H12.4667C13.0384 14.1667 13.4942 13.8533 13.9025 13.415C14.7392 12.5183 13.3659 11.8017 12.8417 11.4508C12.2492 11.0485 11.5496 10.8334 10.8334 10.8334C10.1172 10.8334 9.41753 11.0485 8.82504 11.4508M4.16671 5H2.08337M4.16671 10H2.08337M4.16671 15H2.08337M12.5 7.5C12.5 7.94203 12.3244 8.36595 12.0119 8.67851C11.6993 8.99107 11.2754 9.16667 10.8334 9.16667C10.3913 9.16667 9.96742 8.99107 9.65486 8.67851C9.3423 8.36595 9.16671 7.94203 9.16671 7.5C9.16671 7.05797 9.3423 6.63405 9.65486 6.32149C9.96742 6.00893 10.3913 5.83333 10.8334 5.83333C11.2754 5.83333 11.6993 6.00893 12.0119 6.32149C12.3244 6.63405 12.5 7.05797 12.5 7.5Z" stroke="#4A5565" stroke-width="1.5" stroke-linecap="round" stroke-linejoin="round"/>
</g>
<defs>
<clipPath id="clip0_3569_27836">
<rect width="20" height="20" fill="white"/>
</clipPath>
</defs>
</svg>
