<svg width="21" height="21" viewBox="0 0 21 21" fill="none" xmlns="http://www.w3.org/2000/svg">
<path d="M13.5461 17.78V16.0867C13.5461 15.1886 13.1893 14.3272 12.5542 13.6921C11.9191 13.057 11.0577 12.7002 10.1595 12.7002H5.07976C4.1816 12.7002 3.32022 13.057 2.68513 13.6921C2.05003 14.3272 1.69324 15.1886 1.69324 16.0867V17.78" stroke="#C10007" stroke-width="1.69326" stroke-linecap="round" stroke-linejoin="round"/>
<path d="M7.61967 9.31308C9.49 9.31308 11.0062 7.79688 11.0062 5.92656C11.0062 4.05624 9.49 2.54004 7.61967 2.54004C5.74935 2.54004 4.23315 4.05624 4.23315 5.92656C4.23315 7.79688 5.74935 9.31308 7.61967 9.31308Z" stroke="#C10007" stroke-width="1.69326" stroke-linecap="round" stroke-linejoin="round"/>
<path d="M14.3927 6.77246L18.6259 11.0056" stroke="#C10007" stroke-width="1.69326" stroke-linecap="round" stroke-linejoin="round"/>
<path d="M18.6259 6.77246L14.3927 11.0056" stroke="#C10007" stroke-width="1.69326" stroke-linecap="round" stroke-linejoin="round"/>
</svg>
