<svg width="21" height="21" viewBox="0 0 21 21" fill="none" xmlns="http://www.w3.org/2000/svg">
<path d="M12.6969 1.69336H5.07866C4.62967 1.69336 4.19906 1.87172 3.88158 2.18921C3.56409 2.5067 3.38573 2.9373 3.38573 3.3863V16.9298C3.38573 17.3788 3.56409 17.8094 3.88158 18.1269C4.19906 18.4444 4.62967 18.6227 5.07866 18.6227H15.2363C15.6853 18.6227 16.1159 18.4444 16.4334 18.1269C16.7508 17.8094 16.9292 17.3788 16.9292 16.9298V5.9257L12.6969 1.69336Z" stroke="#99A1AF" stroke-width="1.69294" stroke-linecap="round" stroke-linejoin="round"/>
<path d="M11.8504 1.69336V5.07923C11.8504 5.52823 12.0288 5.95883 12.3463 6.27632C12.6638 6.5938 13.0944 6.77217 13.5434 6.77217H16.9293" stroke="#99A1AF" stroke-width="1.69294" stroke-linecap="round" stroke-linejoin="round"/>
<path d="M8.46471 7.61816H6.77177" stroke="#99A1AF" stroke-width="1.69294" stroke-linecap="round" stroke-linejoin="round"/>
<path d="M13.5435 11.0039H6.77177" stroke="#99A1AF" stroke-width="1.69294" stroke-linecap="round" stroke-linejoin="round"/>
<path d="M13.5435 14.3896H6.77177" stroke="#99A1AF" stroke-width="1.69294" stroke-linecap="round" stroke-linejoin="round"/>
</svg>
