<svg width="16" height="16" viewBox="0 0 16 16" fill="none" xmlns="http://www.w3.org/2000/svg">
<path d="M8 1.99994H3.33333C2.97971 1.99994 2.64057 2.14041 2.39052 2.39046C2.14048 2.64051 2 2.97965 2 3.33327V12.6666C2 13.0202 2.14048 13.3594 2.39052 13.6094C2.64057 13.8595 2.97971 13.9999 3.33333 13.9999H12.6667C13.0203 13.9999 13.3594 13.8595 13.6095 13.6094C13.8595 13.3594 14 13.0202 14 12.6666V7.99994" stroke="#007A55" stroke-width="1.35435" stroke-linecap="round" stroke-linejoin="round"/>
<path d="M12.2499 1.75027C12.5151 1.48506 12.8748 1.33606 13.2499 1.33606C13.625 1.33606 13.9847 1.48506 14.2499 1.75027C14.5151 2.01549 14.6641 2.3752 14.6641 2.75027C14.6641 3.12535 14.5151 3.48506 14.2499 3.75027L8.24123 9.75961C8.08293 9.91777 7.88737 10.0335 7.67257 10.0963L5.75723 10.6563C5.69987 10.673 5.63906 10.674 5.58117 10.6592C5.52329 10.6443 5.47045 10.6142 5.4282 10.572C5.38594 10.5297 5.35583 10.4769 5.341 10.419C5.32617 10.3611 5.32717 10.3003 5.3439 10.2429L5.9039 8.32761C5.96692 8.11297 6.08292 7.91765 6.24123 7.75961L12.2499 1.75027Z" stroke="#007A55" stroke-width="1.35435" stroke-linecap="round" stroke-linejoin="round"/>
</svg>
