<svg width="19" height="21" viewBox="0 0 19 21" fill="none" xmlns="http://www.w3.org/2000/svg">
<path d="M7.60606 16.2418C7.60599 16.3831 7.64531 16.5217 7.71961 16.642C7.7939 16.7622 7.90024 16.8594 8.02667 16.9225L9.54788 17.6832C9.66387 17.7411 9.79275 17.7685 9.92228 17.7626C10.0518 17.7567 10.1777 17.7178 10.288 17.6496C10.3982 17.5814 10.4893 17.4862 10.5524 17.3729C10.6154 17.2596 10.6485 17.1321 10.6485 17.0024V11.6782C10.6486 11.3012 10.7888 10.9377 11.0417 10.6582L16.5356 4.58173C16.634 4.47263 16.6988 4.33734 16.722 4.19222C16.7452 4.04709 16.7258 3.89835 16.6663 3.76399C16.6068 3.62962 16.5096 3.51538 16.3865 3.43509C16.2634 3.35479 16.1197 3.31187 15.9727 3.31152H2.28182C2.13473 3.31158 1.9908 3.35428 1.86748 3.43446C1.74417 3.51465 1.64674 3.62887 1.58702 3.76329C1.52729 3.89772 1.50782 4.04658 1.53097 4.19184C1.55413 4.3371 1.6189 4.47254 1.71746 4.58173L7.21283 10.6582C7.46575 10.9377 7.60589 11.3012 7.60606 11.6782V16.2418Z" stroke="#4A5565" stroke-width="1.52121" stroke-linecap="round" stroke-linejoin="round"/>
</svg>
