<svg width="21" height="21" viewBox="0 0 21 21" fill="none" xmlns="http://www.w3.org/2000/svg">
<path d="M13.5434 17.7761V16.0832C13.5434 15.1852 13.1867 14.324 12.5517 13.689C11.9167 13.054 11.0555 12.6973 10.1576 12.6973H5.07874C4.18075 12.6973 3.31954 13.054 2.68457 13.689C2.0496 14.324 1.69287 15.1852 1.69287 16.0832V17.7761" stroke="#99A1AF" stroke-width="1.69294" stroke-linecap="round" stroke-linejoin="round"/>
<path d="M7.61829 9.31166C9.48826 9.31166 11.0042 7.79575 11.0042 5.92579C11.0042 4.05582 9.48826 2.53992 7.61829 2.53992C5.74833 2.53992 4.23242 4.05582 4.23242 5.92579C4.23242 7.79575 5.74833 9.31166 7.61829 9.31166Z" stroke="#99A1AF" stroke-width="1.69294" stroke-linecap="round" stroke-linejoin="round"/>
<path d="M18.6224 17.7762V16.0833C18.6219 15.3331 18.3722 14.6043 17.9125 14.0114C17.4529 13.4185 16.8094 12.995 16.083 12.8075" stroke="#99A1AF" stroke-width="1.69294" stroke-linecap="round" stroke-linejoin="round"/>
<path d="M13.5435 2.65012C14.2718 2.83659 14.9173 3.26017 15.3783 3.85406C15.8393 4.44795 16.0895 5.17837 16.0895 5.93018C16.0895 6.68199 15.8393 7.41241 15.3783 8.0063C14.9173 8.60019 14.2718 9.02376 13.5435 9.21024" stroke="#99A1AF" stroke-width="1.69294" stroke-linecap="round" stroke-linejoin="round"/>
</svg>
