<svg width="21" height="21" viewBox="0 0 21 21" fill="none" xmlns="http://www.w3.org/2000/svg">
<g clip-path="url(#clip0_3569_25483)">
<path d="M10.1577 18.6227C14.8326 18.6227 18.6224 14.833 18.6224 10.158C18.6224 5.48312 14.8326 1.69336 10.1577 1.69336C5.48276 1.69336 1.69299 5.48312 1.69299 10.158C1.69299 14.833 5.48276 18.6227 10.1577 18.6227Z" stroke="#66B2A3" stroke-width="1.69294" stroke-linecap="round" stroke-linejoin="round"/>
<path d="M7.69446 7.6186C7.89347 7.05288 8.28627 6.57584 8.80329 6.27198C9.32032 5.96812 9.9282 5.85705 10.5193 5.95843C11.1103 6.05982 11.6465 6.36712 12.0327 6.82591C12.4189 7.28469 12.6303 7.86536 12.6294 8.46507C12.6294 10.158 10.09 11.0045 10.09 11.0045" stroke="#66B2A3" stroke-width="1.69294" stroke-linecap="round" stroke-linejoin="round"/>
<path d="M10.1576 14.3896H10.1659" stroke="#66B2A3" stroke-width="1.69294" stroke-linecap="round" stroke-linejoin="round"/>
</g>
<defs>
<clipPath id="clip0_3569_25483">
<rect width="20.3152" height="20.3152" fill="white"/>
</clipPath>
</defs>
</svg>
