<svg width="27" height="27" viewBox="0 0 27 27" fill="none" xmlns="http://www.w3.org/2000/svg">
<path d="M16.4978 23.0935V14.2992C16.4978 14.0077 16.382 13.7281 16.1758 13.5219C15.9697 13.3158 15.6901 13.2 15.3985 13.2H11.0014C10.7098 13.2 10.4302 13.3158 10.2241 13.5219C10.0179 13.7281 9.9021 14.0077 9.9021 14.2992V23.0935" stroke="#66B2A3" stroke-width="1.5" stroke-linecap="round" stroke-linejoin="round"/>
<path d="M3.3064 11.0015C3.30632 10.6817 3.37602 10.3657 3.51063 10.0756C3.64524 9.78545 3.84153 9.52821 4.08579 9.32176L11.7808 2.72715C12.1776 2.39177 12.6804 2.20776 13.2 2.20776C13.7195 2.20776 14.2223 2.39177 14.6191 2.72715L22.3141 9.32176C22.5584 9.52821 22.7547 9.78545 22.8893 10.0756C23.0239 10.3657 23.0936 10.6817 23.0935 11.0015V20.895C23.0935 21.4781 22.8619 22.0373 22.4496 22.4497C22.0373 22.862 21.4781 23.0936 20.895 23.0936H5.50497C4.92187 23.0936 4.36265 22.862 3.95034 22.4497C3.53803 22.0373 3.3064 21.4781 3.3064 20.895V11.0015Z" stroke="#66B2A3" stroke-width="1.5" stroke-linecap="round" stroke-linejoin="round"/>
</svg>
