<svg width="21" height="21" viewBox="0 0 21 21" fill="none" xmlns="http://www.w3.org/2000/svg">
<path d="M16.0829 2.53906H4.23233C3.29735 2.53906 2.5394 3.29702 2.5394 4.232V16.0825C2.5394 17.0175 3.29735 17.7755 4.23233 17.7755H16.0829C17.0179 17.7755 17.7758 17.0175 17.7758 16.0825V4.232C17.7758 3.29702 17.0179 2.53906 16.0829 2.53906Z" stroke="#4A5565" stroke-width="1.69294" stroke-linecap="round" stroke-linejoin="round"/>
<path d="M7.61823 9.31068C8.55321 9.31068 9.31116 8.55272 9.31116 7.61774C9.31116 6.68276 8.55321 5.9248 7.61823 5.9248C6.68325 5.9248 5.92529 6.68276 5.92529 7.61774C5.92529 8.55272 6.68325 9.31068 7.61823 9.31068Z" stroke="#4A5565" stroke-width="1.69294" stroke-linecap="round" stroke-linejoin="round"/>
<path d="M17.7758 12.6967L15.1636 10.0845C14.8461 9.76716 14.4156 9.58887 13.9667 9.58887C13.5178 9.58887 13.0873 9.76716 12.7698 10.0845L5.0788 17.7755" stroke="#4A5565" stroke-width="1.69294" stroke-linecap="round" stroke-linejoin="round"/>
</svg>
