<svg width="16" height="16" viewBox="0 0 16 16" fill="none" xmlns="http://www.w3.org/2000/svg">
<g clip-path="url(#clip0_4318_4504)">
<path d="M13.3245 6.66226C13.3245 9.98872 9.6343 13.4531 8.39512 14.523C8.27968 14.6099 8.13915 14.6568 7.99472 14.6568C7.85028 14.6568 7.70976 14.6099 7.59432 14.523C6.35514 13.4531 2.66492 9.98872 2.66492 6.66226C2.66492 5.24871 3.22645 3.89305 4.22598 2.89352C5.22551 1.89399 6.58117 1.33246 7.99472 1.33246C9.40827 1.33246 10.7639 1.89399 11.7635 2.89352C12.763 3.89305 13.3245 5.24871 13.3245 6.66226Z" stroke="#009966" stroke-width="1.33245" stroke-linecap="round" stroke-linejoin="round"/>
<path d="M7.99465 8.66092C9.09848 8.66092 9.99332 7.76609 9.99332 6.66225C9.99332 5.55841 9.09848 4.66357 7.99465 4.66357C6.89081 4.66357 5.99597 5.55841 5.99597 6.66225C5.99597 7.76609 6.89081 8.66092 7.99465 8.66092Z" stroke="#009966" stroke-width="1.33245" stroke-linecap="round" stroke-linejoin="round"/>
</g>
<defs>
<clipPath id="clip0_4318_4504">
<rect width="15.9894" height="15.9894" fill="white"/>
</clipPath>
</defs>
</svg>
