<svg width="20" height="20" viewBox="0 0 20 20" fill="none" xmlns="http://www.w3.org/2000/svg">
<g clip-path="url(#clip0_3568_17611)">
<path d="M15.8228 9.16016H4.16386C3.24399 9.16016 2.49829 9.90586 2.49829 10.8257V16.6552C2.49829 17.5751 3.24399 18.3208 4.16386 18.3208H15.8228C16.7427 18.3208 17.4884 17.5751 17.4884 16.6552V10.8257C17.4884 9.90586 16.7427 9.16016 15.8228 9.16016Z" stroke="#4A5565" stroke-width="1.66557" stroke-linecap="round" stroke-linejoin="round"/>
<path d="M5.82947 9.16107V5.82993C5.82947 4.72559 6.26816 3.66648 7.04905 2.8856C7.82994 2.10471 8.88905 1.66602 9.99338 1.66602C11.0977 1.66602 12.1568 2.10471 12.9377 2.8856C13.7186 3.66648 14.1573 4.72559 14.1573 5.82993V9.16107" stroke="#4A5565" stroke-width="1.66557" stroke-linecap="round" stroke-linejoin="round"/>
</g>
<defs>
<clipPath id="clip0_3568_17611">
<rect width="19.9868" height="19.9868" fill="white"/>
</clipPath>
</defs>
</svg>
