<svg width="21" height="21" viewBox="0 0 21 21" fill="none" xmlns="http://www.w3.org/2000/svg">
<path d="M11.9426 4.70182C12.1776 4.81926 12.4367 4.8804 12.6995 4.8804C12.9622 4.8804 13.2213 4.81926 13.4564 4.70182L16.5542 3.15249C16.6834 3.08794 16.8269 3.0575 16.9711 3.06407C17.1154 3.07064 17.2556 3.114 17.3783 3.19002C17.5011 3.26604 17.6024 3.3722 17.6726 3.4984C17.7427 3.62461 17.7795 3.76666 17.7793 3.91107V14.7175C17.7792 14.8746 17.7353 15.0287 17.6526 15.1624C17.57 15.2961 17.4517 15.4041 17.3111 15.4743L13.4564 17.4021C13.2213 17.5196 12.9622 17.5807 12.6995 17.5807C12.4367 17.5807 12.1776 17.5196 11.9426 17.4021L8.37659 15.6191C8.14156 15.5017 7.88243 15.4405 7.6197 15.4405C7.35697 15.4405 7.09784 15.5017 6.86281 15.6191L3.76499 17.1684C3.63576 17.233 3.49214 17.2635 3.34782 17.2569C3.2035 17.2502 3.06327 17.2068 2.94047 17.1307C2.81768 17.0546 2.71641 16.9483 2.6463 16.822C2.57618 16.6957 2.53956 16.5535 2.53992 16.409V5.60348C2.54 5.44629 2.58385 5.29223 2.66654 5.15855C2.74922 5.02487 2.8675 4.91685 3.00811 4.84659L6.86281 2.91882C7.09784 2.80137 7.35697 2.74023 7.6197 2.74023C7.88243 2.74023 8.14156 2.80137 8.37659 2.91882L11.9426 4.70182Z" stroke="#009966" stroke-width="1.69326" stroke-linecap="round" stroke-linejoin="round"/>
<path d="M12.6995 4.87988V17.5793" stroke="#009966" stroke-width="1.69326" stroke-linecap="round" stroke-linejoin="round"/>
<path d="M7.61963 2.74023V15.4397" stroke="#009966" stroke-width="1.69326" stroke-linecap="round" stroke-linejoin="round"/>
</svg>
