<svg width="48" height="30" viewBox="0 0 48 30" fill="none" xmlns="http://www.w3.org/2000/svg">
<path d="M29.9883 14.9986C29.9883 23.2838 23.2764 29.9971 14.9941 29.9971C6.71182 29.9971 0 23.2824 0 14.9986C0 6.71478 6.71346 0 14.9941 0C23.2748 0 29.9883 6.71478 29.9883 14.9986Z" fill="#E2574C"/>
<path d="M33.0017 0C29.6389 0 26.5432 1.12042 24.0415 2.9908L24.0535 2.99228C24.5455 3.46769 25.0883 3.80228 25.5068 4.34958L22.3871 4.39909C21.8982 4.8926 21.4527 5.42953 21.0327 5.98752H26.5341C26.9526 6.4899 27.3395 6.92649 27.6906 7.48135H20.0354C19.7549 7.96433 19.4955 8.4608 19.2689 8.97667H28.5621C28.8051 9.49107 29.0226 9.87962 29.2071 10.4241H18.7185C18.5521 10.9416 18.4096 11.471 18.3015 12.0109H29.6465C29.7576 12.5299 29.8429 13.0098 29.9015 13.4988H18.0765C18.027 13.9923 18.0015 14.4932 18.0015 14.9987H29.9869C29.9869 15.5297 29.9494 16.0216 29.8954 16.4987H18.0765C18.1275 17.0071 18.2025 17.5066 18.3015 17.9986H29.6284C29.5115 18.4845 29.3764 18.9734 29.207 19.4804H18.684C18.8429 19.9933 19.0365 20.4913 19.2479 20.9772H28.5621C28.3042 21.5232 28.0117 21.9596 27.6893 22.471H20.0085C20.3116 22.996 20.646 23.4969 21.0089 23.9769L26.5343 24.0593C26.0633 24.6247 25.459 24.9652 24.9084 25.4602C24.9383 25.4842 24.028 25.4572 22.2356 25.4288C24.9623 28.2426 28.7735 29.9973 33.0015 29.9973C41.2853 29.9973 48.0001 23.2824 48.0001 14.9987C48.0001 6.71511 41.2868 0 33.0017 0Z" fill="#F4B459"/>
</svg>
