<svg width="24" height="24" viewBox="0 0 24 24" fill="none" xmlns="http://www.w3.org/2000/svg">
<path d="M10.2614 20.9863C10.4368 21.2901 10.6891 21.5424 10.9929 21.7178C11.2968 21.8932 11.6414 21.9856 11.9922 21.9856C12.3431 21.9856 12.6877 21.8932 12.9915 21.7178C13.2954 21.5424 13.5477 21.2901 13.7231 20.9863" stroke="#FCFCFC" stroke-width="1.5" stroke-linecap="round" stroke-linejoin="round"/>
<path d="M3.25988 15.316C3.12933 15.4591 3.04317 15.637 3.0119 15.8282C2.98062 16.0193 3.00556 16.2155 3.0837 16.3927C3.16184 16.5699 3.28979 16.7206 3.45201 16.8265C3.61422 16.9323 3.8037 16.9888 3.9974 16.9889H19.987C20.1807 16.989 20.3702 16.9328 20.5325 16.8271C20.6948 16.7215 20.8229 16.5709 20.9013 16.3938C20.9796 16.2167 21.0048 16.0206 20.9738 15.8294C20.9428 15.6383 20.8569 15.4602 20.7265 15.317C19.3974 13.9469 17.9883 12.4908 17.9883 7.99476C17.9883 6.40449 17.3566 4.87936 16.2321 3.75487C15.1076 2.63039 13.5825 1.99866 11.9922 1.99866C10.4019 1.99866 8.8768 2.63039 7.75232 3.75487C6.62783 4.87936 5.9961 6.40449 5.9961 7.99476C5.9961 12.4908 4.58602 13.9469 3.25988 15.316Z" stroke="#FCFCFC" stroke-width="1.5" stroke-linecap="round" stroke-linejoin="round"/>
</svg>
