<svg width="25" height="25" viewBox="0 0 25 25" fill="none" xmlns="http://www.w3.org/2000/svg">
<path d="M22.3468 17.1875V20.2348C22.3479 20.5177 22.29 20.7977 22.1766 21.0569C22.0633 21.3161 21.8971 21.5488 21.6886 21.74C21.4802 21.9313 21.2341 22.0769 20.9661 22.1675C20.6981 22.2581 20.4141 22.2918 20.1324 22.2663C17.0067 21.9267 14.0043 20.8586 11.3664 19.1479C8.9121 17.5884 6.83132 15.5076 5.27178 13.0534C3.55512 10.4034 2.4868 7.38641 2.15339 4.24669C2.128 3.9658 2.16139 3.6827 2.25141 3.41541C2.34143 3.14813 2.48612 2.90252 2.67627 2.69422C2.86641 2.48592 3.09785 2.31949 3.35584 2.20553C3.61383 2.09158 3.89272 2.03259 4.17475 2.03233H7.22204C7.715 2.02747 8.1929 2.20204 8.56667 2.52348C8.94044 2.84492 9.18458 3.29131 9.25357 3.77944C9.38219 4.75464 9.62072 5.71216 9.9646 6.63373C10.1013 6.9973 10.1308 7.39242 10.0498 7.77228C9.96882 8.15214 9.78061 8.50082 9.50751 8.77699L8.21749 10.067C9.66349 12.61 11.7691 14.7156 14.3121 16.1616L15.6021 14.8716C15.8783 14.5985 16.2269 14.4103 16.6068 14.3292C16.9867 14.2482 17.3818 14.2778 17.7453 14.4145C18.6669 14.7584 19.6244 14.9969 20.5996 15.1255C21.0931 15.1951 21.5437 15.4437 21.8658 15.8238C22.188 16.204 22.3591 16.6894 22.3468 17.1875Z" stroke="#009966" stroke-width="2.03153" stroke-linecap="round" stroke-linejoin="round"/>
</svg>
