<svg width="20" height="20" viewBox="0 0 20 20" fill="none" xmlns="http://www.w3.org/2000/svg">
<g clip-path="url(#clip0_3569_28051)">
<path d="M9.62859 2.71996C9.66454 2.65467 9.71734 2.60023 9.7815 2.56231C9.84566 2.5244 9.91882 2.50439 9.99335 2.50439C10.0679 2.50439 10.141 2.5244 10.2052 2.56231C10.2694 2.60023 10.3222 2.65467 10.3581 2.71996L12.8165 7.38687C12.8751 7.49494 12.9569 7.58868 13.0561 7.66137C13.1552 7.73407 13.2692 7.78391 13.3899 7.80731C13.5106 7.83072 13.635 7.82711 13.7541 7.79675C13.8733 7.76639 13.9842 7.71003 14.079 7.63171L17.6408 4.58039C17.7092 4.52478 17.7934 4.4923 17.8814 4.48762C17.9694 4.48295 18.0567 4.50631 18.1306 4.55437C18.2044 4.60242 18.2612 4.67267 18.2926 4.75502C18.324 4.83737 18.3285 4.92756 18.3054 5.01261L15.9453 13.5453C15.8971 13.7199 15.7933 13.8741 15.6496 13.9844C15.506 14.0947 15.3302 14.1551 15.1491 14.1566H4.83842C4.65715 14.1553 4.48125 14.0949 4.33741 13.9846C4.19357 13.8743 4.08966 13.72 4.04145 13.5453L1.68217 5.01344C1.65906 4.92839 1.66354 4.8382 1.69495 4.75585C1.72636 4.67351 1.78309 4.60325 1.85697 4.5552C1.93086 4.50715 2.01808 4.48378 2.10609 4.48846C2.1941 4.49313 2.27836 4.52561 2.34673 4.58123L5.90771 7.63254C6.00248 7.71086 6.11342 7.76722 6.23255 7.79758C6.35169 7.82794 6.47607 7.83155 6.59676 7.80814C6.71745 7.78474 6.83147 7.7349 6.93062 7.66221C7.02976 7.58951 7.11159 7.49577 7.17021 7.38771L9.62859 2.71996Z" stroke="#4A5565" stroke-width="1.66557" stroke-linecap="round" stroke-linejoin="round"/>
<path d="M4.16394 17.4883H15.8229" stroke="#4A5565" stroke-width="1.66557" stroke-linecap="round" stroke-linejoin="round"/>
</g>
<defs>
<clipPath id="clip0_3569_28051">
<rect width="19.9868" height="19.9868" fill="white"/>
</clipPath>
</defs>
</svg>
