<svg width="21" height="21" viewBox="0 0 21 21" fill="none" xmlns="http://www.w3.org/2000/svg">
<path d="M16.9293 11.0039C16.9293 15.2362 13.9667 17.3524 10.4454 18.5798C10.261 18.6423 10.0607 18.6393 9.87827 18.5713C6.3485 17.3524 3.38586 15.2362 3.38586 11.0039V5.07863C3.38586 4.85414 3.47505 4.63884 3.63379 4.48009C3.79253 4.32135 4.00783 4.23217 4.23233 4.23217C5.92527 4.23217 8.04144 3.21641 9.51429 1.92977C9.69362 1.77656 9.92174 1.69238 10.1576 1.69238C10.3935 1.69238 10.6216 1.77656 10.8009 1.92977C12.2822 3.22487 14.3899 4.23217 16.0829 4.23217C16.3074 4.23217 16.5227 4.32135 16.6814 4.48009C16.8402 4.63884 16.9293 4.85414 16.9293 5.07863V11.0039Z" stroke="#99A1AF" stroke-width="1.69294" stroke-linecap="round" stroke-linejoin="round"/>
<path d="M7.61816 10.1578L9.3111 11.8507L12.697 8.46484" stroke="#99A1AF" stroke-width="1.69294" stroke-linecap="round" stroke-linejoin="round"/>
</svg>
