<svg width="19" height="19" viewBox="0 0 19 19" fill="none" xmlns="http://www.w3.org/2000/svg">
<g clip-path="url(#clip0_3569_21175)">
<path d="M10.5213 16.5338V13.5276C10.5213 13.129 10.3629 12.7467 10.081 12.4648C9.79916 12.1829 9.41685 12.0246 9.01821 12.0246C8.61957 12.0246 8.23726 12.1829 7.95538 12.4648C7.6735 12.7467 7.51514 13.129 7.51514 13.5276V16.5338" stroke="#99A1AF" stroke-width="1.50307" stroke-linecap="round" stroke-linejoin="round"/>
<path d="M13.5275 7.51535L16.1181 8.811C16.2429 8.87337 16.3479 8.96926 16.4213 9.08792C16.4947 9.20659 16.5336 9.34334 16.5337 9.48287V15.0307C16.5337 15.4294 16.3753 15.8117 16.0934 16.0936C15.8115 16.3754 15.4292 16.5338 15.0306 16.5338H3.006C2.60736 16.5338 2.22505 16.3754 1.94317 16.0936C1.66129 15.8117 1.50293 15.4294 1.50293 15.0307V9.48287C1.503 9.34334 1.54192 9.20659 1.61532 9.08792C1.68873 8.96926 1.79371 8.87337 1.91853 8.811L4.50908 7.51535" stroke="#99A1AF" stroke-width="1.50307" stroke-linecap="round" stroke-linejoin="round"/>
<path d="M13.5273 3.75769V16.5338" stroke="#99A1AF" stroke-width="1.50307" stroke-linecap="round" stroke-linejoin="round"/>
<path d="M3.00586 4.50925L8.34628 1.83903C8.55491 1.73478 8.78493 1.68051 9.01815 1.68051C9.25138 1.68051 9.4814 1.73478 9.69003 1.83903L15.0304 4.50925" stroke="#99A1AF" stroke-width="1.50307" stroke-linecap="round" stroke-linejoin="round"/>
<path d="M4.50879 3.75769V16.5338" stroke="#99A1AF" stroke-width="1.50307" stroke-linecap="round" stroke-linejoin="round"/>
<path d="M9.01821 8.26689C9.84834 8.26689 10.5213 7.59394 10.5213 6.76382C10.5213 5.93369 9.84834 5.26074 9.01821 5.26074C8.18809 5.26074 7.51514 5.93369 7.51514 6.76382C7.51514 7.59394 8.18809 8.26689 9.01821 8.26689Z" stroke="#99A1AF" stroke-width="1.50307" stroke-linecap="round" stroke-linejoin="round"/>
</g>
<defs>
<clipPath id="clip0_3569_21175">
<rect width="18.0369" height="18.0369" fill="white"/>
</clipPath>
</defs>
</svg>
