<svg width="21" height="21" viewBox="0 0 21 21" fill="none" xmlns="http://www.w3.org/2000/svg">
<path d="M12.3042 18.3561C12.3364 18.4363 12.3923 18.5046 12.4644 18.5521C12.5366 18.5996 12.6215 18.6238 12.7078 18.6216C12.7942 18.6194 12.8778 18.5908 12.9474 18.5397C13.017 18.4886 13.0693 18.4175 13.0973 18.3358L18.5994 2.25291C18.6265 2.1779 18.6317 2.09674 18.6143 2.0189C18.5969 1.94107 18.5578 1.86979 18.5014 1.8134C18.445 1.75701 18.3737 1.71785 18.2959 1.70049C18.2181 1.68314 18.1369 1.68831 18.0619 1.7154L1.979 7.21744C1.89731 7.24545 1.82614 7.29778 1.77506 7.36741C1.72397 7.43703 1.6954 7.52062 1.69319 7.60695C1.69098 7.69328 1.71523 7.77822 1.76269 7.85037C1.81014 7.92251 1.87853 7.97842 1.95868 8.01058L8.67117 10.7023C8.88337 10.7873 9.07616 10.9144 9.23794 11.0758C9.39971 11.2373 9.5271 11.4299 9.61244 11.6419L12.3042 18.3561Z" stroke="white" stroke-width="1.69294" stroke-linecap="round" stroke-linejoin="round"/>
<path d="M18.4987 1.81738L9.23837 11.0769" stroke="white" stroke-width="1.69294" stroke-linecap="round" stroke-linejoin="round"/>
</svg>
