<svg width="20" height="20" viewBox="0 0 20 20" fill="none" xmlns="http://www.w3.org/2000/svg">
<g clip-path="url(#clip0_3568_17601)">
<path d="M10.1767 1.66602H9.81024C9.36851 1.66602 8.94486 1.84149 8.63251 2.15385C8.32016 2.4662 8.14468 2.88985 8.14468 3.33158V3.48148C8.14438 3.77356 8.06727 4.06043 7.92111 4.3133C7.77494 4.56617 7.56484 4.77616 7.31189 4.9222L6.9538 5.13039C6.7006 5.27658 6.41338 5.35354 6.12101 5.35354C5.82864 5.35354 5.54143 5.27658 5.28823 5.13039L5.16331 5.06377C4.78112 4.8433 4.32706 4.78349 3.90081 4.89747C3.47457 5.01145 3.11096 5.2899 2.88981 5.6717L2.7066 5.98816C2.48613 6.37035 2.42632 6.82441 2.5403 7.25066C2.65428 7.67691 2.93273 8.04051 3.31453 8.26166L3.43945 8.34494C3.69118 8.49027 3.9005 8.69894 4.04659 8.95023C4.19269 9.20152 4.27048 9.48666 4.27223 9.77733V10.202C4.2734 10.4955 4.19699 10.7841 4.05075 11.0386C3.90451 11.293 3.69362 11.5043 3.43945 11.6511L3.31453 11.726C2.93273 11.9472 2.65428 12.3108 2.5403 12.737C2.42632 13.1633 2.48613 13.6173 2.7066 13.9995L2.88981 14.316C3.11096 14.6978 3.47457 14.9762 3.90081 15.0902C4.32706 15.2042 4.78112 15.1444 5.16331 14.9239L5.28823 14.8573C5.54143 14.7111 5.82864 14.6342 6.12101 14.6342C6.41338 14.6342 6.7006 14.7111 6.9538 14.8573L7.31189 15.0655C7.56484 15.2115 7.77494 15.4215 7.92111 15.6744C8.06727 15.9273 8.14438 16.2141 8.14468 16.5062V16.6561C8.14468 17.0979 8.32016 17.5215 8.63251 17.8338C8.94486 18.1462 9.36851 18.3217 9.81024 18.3217H10.1767C10.6184 18.3217 11.042 18.1462 11.3544 17.8338C11.6668 17.5215 11.8422 17.0979 11.8422 16.6561V16.5062C11.8425 16.2141 11.9196 15.9273 12.0658 15.6744C12.212 15.4215 12.4221 15.2115 12.675 15.0655L13.0331 14.8573C13.2863 14.7111 13.5735 14.6342 13.8659 14.6342C14.1583 14.6342 14.4455 14.7111 14.6987 14.8573L14.8236 14.9239C15.2058 15.1444 15.6598 15.2042 16.0861 15.0902C16.5123 14.9762 16.876 14.6978 17.0971 14.316L17.2803 13.9912C17.5008 13.609 17.5606 13.155 17.4466 12.7287C17.3326 12.3025 17.0542 11.9389 16.6724 11.7177L16.5475 11.6511C16.2933 11.5043 16.0824 11.293 15.9362 11.0386C15.7899 10.7841 15.7135 10.4955 15.7147 10.202V9.78565C15.7135 9.49216 15.7899 9.20358 15.9362 8.94912C16.0824 8.69465 16.2933 8.48335 16.5475 8.33661L16.6724 8.26166C17.0542 8.04051 17.3326 7.67691 17.4466 7.25066C17.5606 6.82441 17.5008 6.37035 17.2803 5.98816L17.0971 5.6717C16.876 5.2899 16.5123 5.01145 16.0861 4.89747C15.6598 4.78349 15.2058 4.8433 14.8236 5.06377L14.6987 5.13039C14.4455 5.27658 14.1583 5.35354 13.8659 5.35354C13.5735 5.35354 13.2863 5.27658 13.0331 5.13039L12.675 4.9222C12.4221 4.77616 12.212 4.56617 12.0658 4.3133C11.9196 4.06043 11.8425 3.77356 11.8422 3.48148V3.33158C11.8422 2.88985 11.6668 2.4662 11.3544 2.15385C11.042 1.84149 10.6184 1.66602 10.1767 1.66602Z" stroke="#4A5565" stroke-width="1.66557" stroke-linecap="round" stroke-linejoin="round"/>
<path d="M9.99335 12.4918C11.3731 12.4918 12.4917 11.3733 12.4917 9.99347C12.4917 8.61367 11.3731 7.49512 9.99335 7.49512C8.61354 7.49512 7.495 8.61367 7.495 9.99347C7.495 11.3733 8.61354 12.4918 9.99335 12.4918Z" stroke="#4A5565" stroke-width="1.66557" stroke-linecap="round" stroke-linejoin="round"/>
</g>
<defs>
<clipPath id="clip0_3568_17601">
<rect width="19.9868" height="19.9868" fill="white"/>
</clipPath>
</defs>
</svg>
