<svg width="25" height="25" viewBox="0 0 25 25" fill="none" xmlns="http://www.w3.org/2000/svg">
<path d="M20.3154 13.2051C20.3154 18.2839 16.7603 20.8233 12.5347 22.2962C12.3134 22.3712 12.0731 22.3676 11.8541 22.286C7.6184 20.8233 4.06323 18.2839 4.06323 13.2051V6.09476C4.06323 5.82536 4.17025 5.567 4.36074 5.37651C4.55124 5.18601 4.8096 5.079 5.079 5.079C7.11052 5.079 9.64993 3.86008 11.4174 2.31612C11.6326 2.13227 11.9063 2.03125 12.1893 2.03125C12.4724 2.03125 12.7461 2.13227 12.9613 2.31612C14.7389 3.87024 17.2682 5.079 19.2997 5.079C19.5691 5.079 19.8274 5.18601 20.0179 5.37651C20.2084 5.567 20.3154 5.82536 20.3154 6.09476V13.2051Z" stroke="#009966" stroke-width="2.03153" stroke-linecap="round" stroke-linejoin="round"/>
</svg>
