<svg width="17" height="17" viewBox="0 0 17 17" fill="none" xmlns="http://www.w3.org/2000/svg">
<path d="M7.80441 1.55516C7.83408 1.49521 7.87993 1.44474 7.93676 1.40945C7.9936 1.37417 8.05917 1.35547 8.12606 1.35547C8.19296 1.35547 8.25853 1.37417 8.31537 1.40945C8.3722 1.44474 8.41804 1.49521 8.44772 1.55516L10.012 4.72365C10.115 4.9322 10.2672 5.11263 10.4553 5.24945C10.6434 5.38627 10.8619 5.47539 11.0921 5.50917L14.5904 6.02112C14.6566 6.03072 14.7189 6.05868 14.7701 6.10183C14.8214 6.14499 14.8595 6.20162 14.8802 6.26531C14.9009 6.329 14.9034 6.39722 14.8874 6.46225C14.8713 6.52728 14.8374 6.58652 14.7894 6.63328L12.2595 9.09683C12.0927 9.25942 11.9678 9.46012 11.8958 9.68166C11.8237 9.90319 11.8065 10.1389 11.8458 10.3686L12.443 13.8492C12.4547 13.9155 12.4476 13.9837 12.4224 14.0461C12.3972 14.1085 12.355 14.1625 12.3005 14.202C12.2461 14.2416 12.1816 14.265 12.1145 14.2697C12.0474 14.2744 11.9803 14.2601 11.9209 14.2284L8.79376 12.5843C8.5877 12.4761 8.35846 12.4196 8.12573 12.4196C7.89299 12.4196 7.66375 12.4761 7.45769 12.5843L4.33119 14.2284C4.27182 14.2599 4.20483 14.274 4.13782 14.2693C4.07082 14.2645 4.0065 14.241 3.95217 14.2015C3.89785 14.162 3.8557 14.108 3.83052 14.0458C3.80535 13.9835 3.79816 13.9154 3.80977 13.8492L4.40635 10.3692C4.44576 10.1395 4.42869 9.90362 4.35661 9.68194C4.28453 9.46027 4.1596 9.25946 3.9926 9.09683L1.46269 6.63396C1.41433 6.58725 1.38007 6.52791 1.36379 6.46268C1.34752 6.39746 1.34989 6.32897 1.37064 6.26503C1.39139 6.20108 1.42968 6.14425 1.48116 6.10101C1.53263 6.05777 1.59521 6.02985 1.66177 6.02044L5.15937 5.50917C5.38978 5.47565 5.6086 5.38664 5.79699 5.24981C5.98537 5.11297 6.13768 4.93241 6.24081 4.72365L7.80441 1.55516Z" fill="url(#paint0_linear_3569_24709)"/>
<defs>
<linearGradient id="paint0_linear_3569_24709" x1="3.35312" y1="8.35547" x2="14.3531" y2="8.35547" gradientUnits="userSpaceOnUse">
<stop offset="0.44" stop-color="white"/>
<stop offset="0.5" stop-opacity="0"/>
</linearGradient>
</defs>
</svg>
