<svg width="21" height="21" viewBox="0 0 21 21" fill="none" xmlns="http://www.w3.org/2000/svg">
<path d="M9.75555 1.94298C9.79265 1.86803 9.84995 1.80495 9.921 1.76084C9.99204 1.71673 10.074 1.69336 10.1576 1.69336C10.2412 1.69336 10.3232 1.71673 10.3943 1.76084C10.4653 1.80495 10.5226 1.86803 10.5597 1.94298L12.515 5.9036C12.6439 6.16429 12.834 6.38982 13.0692 6.56084C13.3043 6.73187 13.5775 6.84328 13.8652 6.8855L18.238 7.52543C18.3209 7.53744 18.3987 7.57239 18.4627 7.62633C18.5268 7.68027 18.5744 7.75106 18.6003 7.83068C18.6262 7.91029 18.6293 7.99557 18.6093 8.07685C18.5892 8.15814 18.5468 8.23219 18.4869 8.29064L15.3245 11.3701C15.1159 11.5733 14.9599 11.8242 14.8698 12.1011C14.7797 12.378 14.7582 12.6727 14.8073 12.9598L15.5539 17.3106C15.5685 17.3934 15.5595 17.4787 15.528 17.5567C15.4965 17.6346 15.4438 17.7022 15.3757 17.7516C15.3077 17.801 15.2271 17.8303 15.1432 17.8362C15.0593 17.842 14.9755 17.8241 14.9012 17.7846L10.9922 15.7294C10.7347 15.5942 10.4481 15.5235 10.1572 15.5235C9.86629 15.5235 9.57973 15.5942 9.32216 15.7294L5.41402 17.7846C5.33981 17.8239 5.25606 17.8416 5.17231 17.8356C5.08856 17.8297 5.00815 17.8003 4.94025 17.751C4.87234 17.7016 4.81966 17.6341 4.78819 17.5563C4.75672 17.4784 4.74773 17.3933 4.76224 17.3106L5.50798 12.9606C5.55724 12.6734 5.5359 12.3786 5.44579 12.1015C5.35569 11.8244 5.19953 11.5734 4.99078 11.3701L1.82838 8.29149C1.76794 8.23311 1.7251 8.15893 1.70476 8.07739C1.68442 7.99586 1.68739 7.91025 1.71333 7.83032C1.73926 7.75039 1.78713 7.67936 1.85147 7.6253C1.91581 7.57125 1.99404 7.53635 2.07724 7.52459L6.44925 6.8855C6.73726 6.8436 7.01079 6.73234 7.24627 6.5613C7.48175 6.39025 7.67214 6.16454 7.80106 5.9036L9.75555 1.94298Z" stroke="#D1D5DC" stroke-width="1.69294" stroke-linecap="round" stroke-linejoin="round"/>
</svg>
