<svg width="17" height="17" viewBox="0 0 17 17" fill="none" xmlns="http://www.w3.org/2000/svg">
<g clip-path="url(#clip0_3569_24703)">
<path d="M7.80442 1.55516C7.8341 1.49521 7.87994 1.44474 7.93678 1.40945C7.99361 1.37417 8.05918 1.35547 8.12608 1.35547C8.19298 1.35547 8.25854 1.37417 8.31538 1.40945C8.37222 1.44474 8.41806 1.49521 8.44774 1.55516L10.012 4.72365C10.1151 4.9322 10.2672 5.11263 10.4553 5.24945C10.6434 5.38627 10.8619 5.47539 11.0921 5.50917L14.5904 6.02112C14.6567 6.03072 14.7189 6.05868 14.7702 6.10183C14.8214 6.14499 14.8595 6.20162 14.8802 6.26531C14.9009 6.329 14.9034 6.39722 14.8874 6.46225C14.8713 6.52728 14.8374 6.58652 14.7895 6.63328L12.2595 9.09683C12.0927 9.25942 11.9679 9.46012 11.8958 9.68166C11.8237 9.90319 11.8066 10.1389 11.8458 10.3686L12.4431 13.8492C12.4548 13.9155 12.4476 13.9837 12.4224 14.0461C12.3972 14.1085 12.355 14.1625 12.3005 14.202C12.2461 14.2416 12.1817 14.265 12.1145 14.2697C12.0474 14.2744 11.9803 14.2601 11.921 14.2284L8.79377 12.5843C8.58772 12.4761 8.35847 12.4196 8.12574 12.4196C7.89301 12.4196 7.66376 12.4761 7.45771 12.5843L4.3312 14.2284C4.27184 14.2599 4.20484 14.274 4.13784 14.2693C4.07083 14.2645 4.00651 14.241 3.95219 14.2015C3.89786 14.162 3.85572 14.108 3.83054 14.0458C3.80537 13.9835 3.79817 13.9154 3.80978 13.8492L4.40637 10.3692C4.44578 10.1395 4.42871 9.90362 4.35662 9.68194C4.28454 9.46027 4.15961 9.25946 3.99262 9.09683L1.4627 6.63396C1.41435 6.58725 1.38008 6.52791 1.36381 6.46268C1.34753 6.39746 1.34991 6.32897 1.37066 6.26503C1.39141 6.20108 1.4297 6.14425 1.48117 6.10101C1.53264 6.05777 1.59523 6.02985 1.66179 6.02044L5.15939 5.50917C5.3898 5.47565 5.60861 5.38664 5.797 5.24981C5.98539 5.11297 6.1377 4.93241 6.24083 4.72365L7.80442 1.55516Z" fill="white" stroke="white" stroke-width="1.35435" stroke-linecap="round" stroke-linejoin="round"/>
</g>
<defs>
<clipPath id="clip0_3569_24703">
<rect width="16.2521" height="16.2521" fill="white"/>
</clipPath>
</defs>
</svg>
