<svg width="16" height="16" viewBox="0 0 16 16" fill="none" xmlns="http://www.w3.org/2000/svg">
<path d="M1.37468 8.23218C1.31912 8.0825 1.31912 7.91786 1.37468 7.76818C1.91581 6.45608 2.83435 5.33421 4.01386 4.54478C5.19336 3.75535 6.58071 3.33392 8.00001 3.33392C9.41932 3.33392 10.8067 3.75535 11.9862 4.54478C13.1657 5.33421 14.0842 6.45608 14.6253 7.76818C14.6809 7.91786 14.6809 8.0825 14.6253 8.23218C14.0842 9.54428 13.1657 10.6662 11.9862 11.4556C10.8067 12.245 9.41932 12.6664 8.00001 12.6664C6.58071 12.6664 5.19336 12.245 4.01386 11.4556C2.83435 10.6662 1.91581 9.54428 1.37468 8.23218Z" stroke="#66B2A3" stroke-width="1.35435" stroke-linecap="round" stroke-linejoin="round"/>
<path d="M8 10.0004C9.10457 10.0004 10 9.105 10 8.00043C10 6.89586 9.10457 6.00043 8 6.00043C6.89543 6.00043 6 6.89586 6 8.00043C6 9.105 6.89543 10.0004 8 10.0004Z" stroke="#66B2A3" stroke-width="1.35435" stroke-linecap="round" stroke-linejoin="round"/>
</svg>
