<svg width="21" height="21" viewBox="0 0 21 21" fill="none" xmlns="http://www.w3.org/2000/svg">
<path d="M9.31291 3.9798C9.31274 3.86188 9.27764 3.74664 9.21204 3.64865C9.14645 3.55065 9.05329 3.47428 8.94433 3.42918C8.83537 3.38407 8.7155 3.37225 8.59983 3.39521C8.48416 3.41817 8.37788 3.47488 8.29441 3.55818L5.42942 6.42233C5.31885 6.53356 5.18731 6.62174 5.04242 6.68176C4.89752 6.74178 4.74216 6.77245 4.58533 6.77199H2.53987C2.31533 6.77199 2.09998 6.86119 1.94121 7.01996C1.78244 7.17873 1.69324 7.39408 1.69324 7.61862V12.6984C1.69324 12.9229 1.78244 13.1383 1.94121 13.2971C2.09998 13.4558 2.31533 13.545 2.53987 13.545H4.58533C4.74216 13.5446 4.89752 13.5752 5.04242 13.6353C5.18731 13.6953 5.31885 13.7835 5.42942 13.8947L8.29357 16.7597C8.37704 16.8433 8.48347 16.9003 8.59936 16.9234C8.71525 16.9465 8.83539 16.9347 8.94456 16.8894C9.05373 16.8442 9.14701 16.7676 9.21258 16.6693C9.27816 16.5709 9.31307 16.4554 9.31291 16.3372V3.9798Z" stroke="#99A1AF" stroke-width="1.69326" stroke-linecap="round" stroke-linejoin="round"/>
<path d="M13.5461 7.61914C14.0957 8.35188 14.3928 9.2431 14.3928 10.159C14.3928 11.075 14.0957 11.9662 13.5461 12.6989" stroke="#99A1AF" stroke-width="1.69326" stroke-linecap="round" stroke-linejoin="round"/>
<path d="M16.3942 15.5474C17.1017 14.8398 17.663 13.9998 18.0459 13.0754C18.4289 12.1509 18.6259 11.1601 18.6259 10.1594C18.6259 9.1588 18.4289 8.16796 18.0459 7.24349C17.663 6.31903 17.1017 5.47904 16.3942 4.77148" stroke="#99A1AF" stroke-width="1.69326" stroke-linecap="round" stroke-linejoin="round"/>
</svg>
