<svg width="21" height="21" viewBox="0 0 21 21" fill="none" xmlns="http://www.w3.org/2000/svg">
<path d="M18.3938 15.2366L11.622 3.38606C11.4744 3.12552 11.2603 2.90881 11.0015 2.75804C10.7428 2.60727 10.4487 2.52783 10.1492 2.52783C9.84971 2.52783 9.5556 2.60727 9.29685 2.75804C9.0381 2.90881 8.82398 3.12552 8.67633 3.38606L1.90458 15.2366C1.75534 15.4951 1.67708 15.7884 1.67774 16.0869C1.6784 16.3854 1.75796 16.6784 1.90835 16.9362C2.05874 17.194 2.27462 17.4075 2.5341 17.5549C2.79358 17.7024 3.08744 17.7787 3.3859 17.776H16.9294C17.2264 17.7757 17.5181 17.6973 17.7752 17.5486C18.0324 17.3998 18.2458 17.1861 18.3942 16.9288C18.5426 16.6715 18.6207 16.3797 18.6206 16.0826C18.6205 15.7856 18.5423 15.4938 18.3938 15.2366Z" stroke="#E7000B" stroke-width="1.69294" stroke-linecap="round" stroke-linejoin="round"/>
<path d="M10.1577 7.61841V11.0043" stroke="#E7000B" stroke-width="1.69294" stroke-linecap="round" stroke-linejoin="round"/>
<path d="M10.1577 14.3899H10.166" stroke="#E7000B" stroke-width="1.69294" stroke-linecap="round" stroke-linejoin="round"/>
</svg>
