<svg width="26" height="26" viewBox="0 0 26 26" fill="none" xmlns="http://www.w3.org/2000/svg">
<g clip-path="url(#clip0_4474_1488)">
<path d="M10.1572 12.5857C10.1572 10.5463 9.36286 8.62767 7.92014 7.18638C7.35418 6.62017 6.43687 6.62017 5.87127 7.18638C5.30531 7.75213 5.30531 8.66904 5.87127 9.23525C6.76652 10.1292 7.25936 11.3195 7.25936 12.5857C7.25936 13.8518 6.76652 15.0421 5.87127 15.9361C5.73662 16.0706 5.62982 16.2303 5.55699 16.4062C5.48416 16.582 5.44673 16.7705 5.44685 16.9608C5.44685 17.3324 5.58829 17.7021 5.87127 17.985C6.43687 18.5512 7.35413 18.5512 7.92014 17.985C9.36286 16.5436 10.1572 14.6251 10.1572 12.5857Z" fill="#FCFCFC"/>
<path d="M5.06958 12.5858C5.06958 11.2985 4.56817 10.0875 3.65751 9.17772C3.30027 8.82032 2.72126 8.82032 2.36424 9.17772C2.007 9.53483 2.007 10.1136 2.36424 10.471C2.92933 11.0353 3.24042 11.7866 3.24042 12.5858C3.24042 13.385 2.92933 14.1363 2.36424 14.7006C2.27925 14.7855 2.21184 14.8864 2.16587 14.9973C2.1199 15.1083 2.09627 15.2273 2.09634 15.3474C2.09634 15.582 2.18562 15.8153 2.36424 15.9939C2.72125 16.3513 3.30024 16.3513 3.65751 15.9939C4.56817 15.0841 5.06958 13.8731 5.06958 12.5858Z" fill="#FCFCFC"/>
<path d="M14.9282 12.5861C14.9282 9.27165 13.6374 6.15571 11.2939 3.8125C10.7279 3.24674 9.8105 3.24674 9.245 3.8125C8.67904 4.37866 8.67904 5.29608 9.245 5.86132C11.0414 7.65723 12.0306 10.0458 12.0306 12.5861C12.0306 15.1253 11.0414 17.5139 9.245 19.3099C9.11029 19.4442 9.00345 19.6039 8.9306 19.7796C8.85775 19.9554 8.82033 20.1438 8.82048 20.3341C8.82048 20.7057 8.96197 21.0759 9.245 21.3587C9.8105 21.9245 10.7279 21.9245 11.2939 21.3587C13.6374 19.0155 14.9282 15.9006 14.9282 12.5861Z" fill="#FCFCFC"/>
<path d="M14.6748 24.7405C17.922 21.4944 19.71 17.1782 19.71 12.5861C19.71 7.99397 17.922 3.67775 14.6748 0.43164C14.1088 -0.134115 13.1913 -0.134115 12.6258 0.43164C12.4911 0.566084 12.3843 0.72581 12.3115 0.90165C12.2386 1.07749 12.2013 1.26598 12.2015 1.45631C12.2015 1.82697 12.3429 2.19866 12.6258 2.48051C15.3257 5.17936 16.8123 8.76878 16.8123 12.5861C16.8123 16.4035 15.3257 19.9918 12.6258 22.6908C12.0599 23.2564 12.0604 24.1733 12.6253 24.7396C13.1913 25.3053 14.1088 25.3053 14.6748 24.7405Z" fill="#FCFCFC"/>
</g>
<defs>
<clipPath id="clip0_4474_1488">
<rect width="25.1566" height="25.1566" fill="white"/>
</clipPath>
</defs>
</svg>
